# xmcd CD database file
#
# Track frame offsets:
#	150
#	11311
#	23317
#	35763
#	48733
#	60920
#	76533
#	91176
#	107049
#	122185
#	136219
#	148298
#	161879
#	178236
#	193134
#	209651
#	225339
#	240736
#	256549
#	268708
#
# Disc length: 3777 seconds
#
# Revision: 0
# Processed by: cddbd v1.5.2PL0 Copyright (c) Steve Scherf et al.
# Submitted via: CDex 1.51
#
DISCID=0c0ebf14
DTITLE=Shorty Rogers - West Coast Jazz - Infinity Promenade
DYEAR=2005
DGENRE=Jazz
TTITLE0=Swing Shift
TTITLE1=Block Buster
TTITLE2=Dynamite
TTITLE3=Powder Puff
TTITLE4=The Pesky Serpent
TTITLE5=Bunny
TTITLE6=Pirouette
TTITLE7=Morpo
TTITLE8=Diablo's Dance
TTITLE9=Mambo Del Crow
TTITLE10=Indian Club
TTITLE11=Coop de Graas
TTITLE12=Infinity Promenade
TTITLE13=Short Stop
TTITLE14=Boar Jibu
TTITLE15=Countours
TTITLE16=Tale of an African Lobster
TTITLE17=Chiquito Loco
TTITLE18=Sweetheart of Sigmund Freud
TTITLE19=Infinity Promenade
EXTD=YEAR: 2005
EXTT0=
EXTT1=
EXTT2=
EXTT3=
EXTT4=
EXTT5=
EXTT6=
EXTT7=
EXTT8=
EXTT9=
EXTT10=
EXTT11=
EXTT12=
EXTT13=
EXTT14=
EXTT15=
EXTT16=
EXTT17=
EXTT18=
EXTT19=
PLAYORDER=
